<?xml version="1.0" encoding="UTF-8" standalone="no"?>
<!-- Created with Inkscape (http://www.inkscape.org/) -->

<svg
   xmlns:dc="http://purl.org/dc/elements/1.1/"
   xmlns:cc="http://creativecommons.org/ns#"
   xmlns:rdf="http://www.w3.org/1999/02/22-rdf-syntax-ns#"
   xmlns:svg="http://www.w3.org/2000/svg"
   xmlns="http://www.w3.org/2000/svg"
   xmlns:sodipodi="http://sodipodi.sourceforge.net/DTD/sodipodi-0.dtd"
   xmlns:inkscape="http://www.inkscape.org/namespaces/inkscape"
   width="158.29163mm"
   height="79.570045mm"
   viewBox="0 0 158.29163 79.570045"
   version="1.1"
   id="svg8"
   inkscape:version="0.92.2 (5c3e80d, 2017-08-06)"
   sodipodi:docname="GO Logo.svg">
  <defs
     id="defs2" />
  <sodipodi:namedview
     id="base"
     pagecolor="#ffffff"
     bordercolor="#666666"
     borderopacity="1.0"
     inkscape:pageopacity="0.0"
     inkscape:pageshadow="2"
     inkscape:zoom="0.35"
     inkscape:cx="1158.7036"
     inkscape:cy="451.65204"
     inkscape:document-units="mm"
     inkscape:current-layer="layer1"
     showgrid="false"
     fit-margin-top="0"
     fit-margin-left="0"
     fit-margin-right="0"
     fit-margin-bottom="0"
     inkscape:window-width="1920"
     inkscape:window-height="1005"
     inkscape:window-x="-9"
     inkscape:window-y="-9"
     inkscape:window-maximized="1" />
  <metadata
     id="metadata5">
    <rdf:RDF>
      <cc:Work
         rdf:about="">
        <dc:format>image/svg+xml</dc:format>
        <dc:type
           rdf:resource="http://purl.org/dc/dcmitype/StillImage" />
        <dc:title></dc:title>
      </cc:Work>
    </rdf:RDF>
  </metadata>
  <g
     inkscape:label="Layer 1"
     inkscape:groupmode="layer"
     id="layer1"
     transform="translate(489.27751,-202.88682)">
    <path
       style="fill:#f07c31;fill-opacity:1;stroke-width:0.26458332"
       d="m -453.76041,282.35251 c -1.9227,-0.25483 -7.06165,-1.49346 -8.85301,-2.13383 -5.21969,-1.8659 -10.88785,-5.49156 -14.82721,-9.48427 -5.28915,-5.36079 -8.67315,-11.42761 -10.6174,-19.03485 -0.70289,-2.75018 -1.212,-2.83 -1.21948,-8.79807 0.0578,-7.13789 0.69662,-8.08073 2.30846,-12.92629 4.66177,-14.01435 17.04091,-24.46807 31.62114,-26.70288 3.64652,-0.55893 9.59246,-0.50319 13.06173,0.12243 10.27822,1.85351 19.27501,7.48464 25.39439,15.89446 0.67726,0.93075 1.23138,1.83164 1.23138,2.00199 0,0.17034 -0.80368,0.7822 -1.78594,1.35968 -3.19654,1.87926 -15.00825,9.127 -15.26646,9.3676 -0.14611,0.13614 4.67872,0.2342 11.52344,0.2342 h 11.7748 l 0.61246,-1.91822 c 0.83736,-2.62261 3.13359,-7.30955 4.8019,-9.80137 6.11117,-9.12775 16.03057,-15.50768 26.83667,-17.26072 3.14585,-0.51035 9.71727,-0.50255 12.73149,0.0151 14.6095,2.509 26.45358,12.49978 31.29936,26.40182 1.59794,4.58432 2.15313,7.1448 2.14675,13.01443 -0.005,4.42083 -0.26436,5.71279 -0.73779,7.85065 -1.81168,8.18101 -5.32664,14.64429 -11.09644,20.40405 -2.98601,2.98081 -6.27546,5.32538 -10.26629,7.31736 -6.35836,3.17372 -10.54691,4.12204 -18.12395,4.10341 -4.40281,-0.0108 -5.21392,-0.0865 -8.0698,-0.75265 -7.65803,-1.78635 -13.93577,-5.17578 -19.25466,-10.39582 -5.53129,-5.42849 -9.38308,-12.08728 -11.02967,-19.06754 -0.31117,-1.3191 -0.80421,-1.67681 -0.80421,-0.58346 0,0.97924 -1.64888,5.69619 -2.91498,8.33887 -2.00404,4.18296 -4.22509,7.27653 -7.78963,10.84972 -5.79397,5.80805 -12.16734,9.25652 -20.32465,10.99718 -2.40439,0.51306 -10.1466,0.8807 -12.3624,0.58702 z m 10.54212,-21.4875 c 2.30402,-0.78067 5.42562,-2.51882 6.88898,-3.83588 0.9292,-0.83631 3.2064,-3.59765 3.2064,-3.8881 0,-0.15459 -4.87335,-0.25085 -12.7,-0.25085 h -12.7 v -10.31875 -10.31875 h 12.71496 12.71495 l -0.47797,-0.82215 c -0.97687,-1.68026 -4.49792,-4.6637 -6.95688,-5.89466 -3.23836,-1.62113 -5.59926,-2.10879 -9.4857,-1.95933 -3.93086,0.15116 -6.64091,1.0331 -9.95929,3.24108 -10.38055,6.90698 -11.25928,22.26065 -1.73925,30.38921 3.87462,3.30831 7.99994,4.73452 13.24334,4.57853 2.27974,-0.0678 3.22165,-0.23294 5.25046,-0.92035 z m 76.15777,0.63733 c 6.89621,-1.46731 12.24438,-6.25548 14.52539,-13.00446 1.01769,-3.01114 1.18309,-7.07488 0.41371,-10.16508 -0.9276,-3.72567 -2.42206,-6.35677 -5.19225,-9.14131 -3.90798,-3.92821 -8.05514,-5.67006 -13.49987,-5.67006 -9.17676,0 -16.85358,6.23261 -18.90176,15.34584 -0.4505,2.00447 -0.32934,6.25823 0.24116,8.46666 1.84734,7.15113 7.67194,12.71302 14.82414,14.15551 2.33401,0.47073 5.41312,0.47597 7.58948,0.0129 z"
       id="path826"
       inkscape:connector-curvature="0"
       sodipodi:nodetypes="ccsscsscssccsccsccsssccccscssccccsssccccccccccccccccssscc" />
  </g>
</svg>
